<svg xmlns="http://www.w3.org/2000/svg" width="20" height="21" viewBox="0 0 20 21" fill="none">
  <path d="M18.5714 6.21429H15.1429V5.64286C15.1429 4.27889 14.601 2.97078 13.6365 2.00631C12.6721 1.04184 11.364 0.5 10 0.5C8.63603 0.5 7.32792 1.04184 6.36345 2.00631C5.39898 2.97078 4.85714 4.27889 4.85714 5.64286V6.21429H1.42857C1.04969 6.21429 0.686328 6.3648 0.418419 6.6327C0.15051 6.90061 0 7.26398 0 7.64286V17.3571C0 18.1907 0.331121 18.9901 0.920521 19.5795C1.50992 20.1689 2.30932 20.5 3.14286 20.5H16.8571C17.6907 20.5 18.4901 20.1689 19.0795 19.5795C19.6689 18.9901 20 18.1907 20 17.3571V7.64286C20 7.26398 19.8495 6.90061 19.5816 6.6327C19.3137 6.3648 18.9503 6.21429 18.5714 6.21429ZM6.57143 5.64286C6.57143 4.73354 6.93265 3.86147 7.57563 3.21849C8.21862 2.57551 9.09069 2.21429 10 2.21429C10.9093 2.21429 11.7814 2.57551 12.4244 3.21849C13.0673 3.86147 13.4286 4.73354 13.4286 5.64286V6.21429H6.57143V5.64286ZM18.2857 17.3571C18.2857 17.736 18.1352 18.0994 17.8673 18.3673C17.5994 18.6352 17.236 18.7857 16.8571 18.7857H3.14286C2.76398 18.7857 2.40061 18.6352 2.1327 18.3673C1.8648 18.0994 1.71429 17.736 1.71429 17.3571V7.92857H4.85714V10.5C4.85714 10.7273 4.94745 10.9453 5.10819 11.1061C5.26894 11.2668 5.48696 11.3571 5.71429 11.3571C5.94161 11.3571 6.15963 11.2668 6.32038 11.1061C6.48112 10.9453 6.57143 10.7273 6.57143 10.5V7.92857H13.4286V10.5C13.4286 10.7273 13.5189 10.9453 13.6796 11.1061C13.8404 11.2668 14.0584 11.3571 14.2857 11.3571C14.513 11.3571 14.7311 11.2668 14.8918 11.1061C15.0526 10.9453 15.1429 10.7273 15.1429 10.5V7.92857H18.2857V17.3571Z" fill="#FFFCFC"/>
</svg>